<svg id="图层_1" data-name="图层 1" xmlns="http://www.w3.org/2000/svg" viewBox="0 0 302.71 246.4"><defs><style>.cls-1{fill:#08c;}</style></defs><title>qsc-logo</title><g id="组_1" data-name="组 1"><path id="logo" class="cls-1" d="M439.67,11.57c3.11,13.73,7.21,27.18,16,38.41a140.13,140.13,0,0,0,17.87,18.58c6.73,5.92,12.3,5.2,18.66-1.22,2-2,3.65-4.24,5.62-6.56,5.64,35-14.74,80.84-40.82,91.14a13.26,13.26,0,0,1,.95-2.67c19.49-29.1-3.13-59.37-29-63.9-41-7.18-77.67,15.81-81.59,62.18-2.53,29.84,7.7,54.9,33.18,72,21.76,14.61,59.53,20.21,86.63-3.16,4.84-4.18,9.75-8.29,14.94-12.14a102.31,102.31,0,0,1-31.75,36.94c-24.94,17.9-52.68,19.72-81.6,13.63-31.95-6.73-58.12-23.63-80.57-46.67A135.76,135.76,0,0,0,246,178.57c-15.63-7-32-10.55-49.94-9.19a10.82,10.82,0,0,1,1.19-2.47c19.57-19.9,48.57-23.7,72.5-9.35C283,165.5,293.4,176.42,302.14,189,317,210.47,334.45,229.15,359,239.74c7.47,3.23,15.54,5,23.34,7.51l.54-1.57c-1.25-.56-2.48-1.23-3.77-1.69-59.85-20.94-99.21-106.31-39.81-170.84,5.95-6.47,11.82-13.21,16.55-20.58,9-14,7.38-21.2-6.76-32.34,2.81.92,4.1,1.37,5.4,1.77,16.31,5,32.37,11.18,49,14.66,22.87,4.78,31-1.87,35.07-25.09ZM371.45,34.08l-2.71.08c2,7.85-2.16,13.52-6.38,19-4.89,6.38-10.12,12.51-15.05,18.86-7.15,9.22-14.61,18.26-21.14,27.91-9,13.25-10,28.52-9.62,43.94a8.67,8.67,0,0,0,.75-3.25A88.9,88.9,0,0,1,341.42,85.5c4.17-4.49,8.6-8.85,12.06-13.86,6.38-9.26,12.38-18.81,17.92-28.59C372.69,40.78,371.49,37.11,371.45,34.08ZM435,30c-6.33,11-15.37,14.2-25.75,12.81-9.75-1.31-19.31-4-28.74-6.1,10.91,6.38,22,13.08,35.71,13.06,11,0,18.1-7.06,18.78-19.77ZM266.41,180.07c-1.61-11.74-21.28-20.37-45.16-15.62C237.79,167.05,252.91,170.19,266.41,180.07ZM467.54,71.27c2.84,3,5.41,6.26,8.58,8.83,7.19,5.84,12.73,3.63,15.17-6.19C482.63,78.67,475.33,75.67,467.54,71.27Z" transform="translate(-196.05 -11.57)"/></g></svg>