<svg id="图层_1" data-name="图层 1" xmlns="http://www.w3.org/2000/svg" viewBox="0 0 910 364">
  <defs>
    <style>
      .cls-1 {
        fill: #08c;
      }
    </style>
  </defs>
  <title>qsc-logo</title>
  <g id="组_1" data-name="组 1">
    <path id="logo" class="cls-1" d="M539.77,51.84c3.12,13.73,7.21,27.18,16,38.41a140.2,140.2,0,0,0,17.88,18.58c6.73,5.92,12.3,5.2,18.66-1.22,2-2,3.64-4.24,5.62-6.56,5.64,35-14.74,80.84-40.82,91.13a12.88,12.88,0,0,1,.95-2.67c19.49-29.1-3.13-59.37-29-63.9-41-7.17-77.67,15.82-81.59,62.19-2.52,29.84,7.7,54.9,33.18,72,21.76,14.61,59.54,20.21,86.63-3.16,4.85-4.18,9.76-8.29,15-12.14a102.33,102.33,0,0,1-31.76,36.94c-24.93,17.9-52.67,19.72-81.6,13.63-31.94-6.73-58.11-23.63-80.56-46.67a135.88,135.88,0,0,0-42.22-29.57c-15.63-7-32-10.56-49.94-9.19a11.21,11.21,0,0,1,1.18-2.47c19.58-19.9,48.58-23.7,72.5-9.36,13.25,8,23.67,18.87,32.4,31.47,14.87,21.45,32.32,40.13,56.82,50.72,7.46,3.23,15.54,5.05,23.33,7.51l.55-1.57c-1.26-.57-2.48-1.23-3.77-1.69C419.31,263.31,380,178,439.35,113.42c6-6.47,11.83-13.21,16.55-20.58,9-14,7.39-21.2-6.75-32.34,2.8.92,4.1,1.37,5.4,1.77,16.31,5,32.37,11.17,49,14.65,22.87,4.79,31-1.86,35.06-25.09ZM471.55,74.35l-2.7.08c1.95,7.84-2.16,13.52-6.38,19-4.89,6.39-10.12,12.51-15.05,18.87-7.16,9.22-14.61,18.26-21.14,27.91-9,13.25-10,28.52-9.62,43.94a8.71,8.71,0,0,0,.75-3.25,88.79,88.79,0,0,1,24.12-55.16c4.17-4.49,8.6-8.85,12.06-13.86C460,102.65,466,93.1,471.51,83.32,472.8,81.05,471.6,77.38,471.55,74.35Zm63.53-4.07c-6.34,11-15.37,14.2-25.75,12.81-9.75-1.32-19.31-4-28.74-6.1,10.9,6.38,22.05,13.08,35.71,13.05,11,0,18.09-7.06,18.78-19.76ZM366.51,220.34c-1.61-11.74-21.27-20.37-45.15-15.62C337.89,207.32,353,210.46,366.51,220.34Zm201.14-108.8c2.84,3,5.41,6.25,8.58,8.83,7.19,5.84,12.72,3.63,15.16-6.19C582.74,118.94,575.44,115.94,567.65,111.54Z"/>
  </g>
</svg>
