<svg xmlns="http://www.w3.org/2000/svg" width="302.709" height="246.396" viewBox="0 0 302.709 246.396">
  <defs>
    <style>
      .cls-1 {
        fill: #0088cc;
      }
    </style>
  </defs>
  <g id="组_1" data-name="logo" transform="translate(-656.158 -670)">
    <path id="logo" data-name="logo" class="cls-1" d="M363.774,371c3.112,13.73,7.209,27.181,16,38.415a140.354,140.354,0,0,0,17.878,18.58c6.727,5.922,12.3,5.2,18.66-1.218,1.963-1.983,3.643-4.242,5.614-6.564,5.646,34.977-14.74,80.843-40.819,91.136a13.261,13.261,0,0,1,.95-2.67c19.493-29.1-3.129-59.371-28.984-63.9-40.979-7.175-77.668,15.813-81.588,62.181-2.525,29.845,7.7,54.906,33.18,72.017,21.758,14.609,59.536,20.206,86.631-3.164,4.844-4.179,9.751-8.29,14.945-12.141a102.321,102.321,0,0,1-31.756,36.943c-24.936,17.9-52.673,19.721-81.6,13.63-31.945-6.729-58.118-23.632-80.564-46.673A135.739,135.739,0,0,0,170.1,538.006c-15.633-6.989-32.025-10.558-49.94-9.191a10.823,10.823,0,0,1,1.184-2.473c19.572-19.9,48.576-23.695,72.5-9.354,13.248,7.942,23.666,18.868,32.4,31.468,14.866,21.447,32.318,40.126,56.817,50.718,7.463,3.226,15.539,5.047,23.335,7.511l.545-1.569c-1.258-.568-2.479-1.235-3.774-1.689-59.853-20.948-99.209-106.312-39.812-170.841,5.956-6.47,11.827-13.211,16.549-20.582,8.975-14.021,7.383-21.2-6.758-32.344,2.807.921,4.1,1.372,5.4,1.771,16.315,4.987,32.373,11.177,49,14.657,22.876,4.784,31.043-1.863,35.068-25.09Zm-68.22,22.516-2.707.077c1.957,7.845-2.157,13.519-6.379,19.036-4.887,6.387-10.119,12.509-15.048,18.862-7.155,9.226-14.612,18.263-21.144,27.914-8.966,13.248-10.036,28.516-9.614,43.938a8.675,8.675,0,0,0,.745-3.246,88.845,88.845,0,0,1,24.125-55.163c4.168-4.49,8.6-8.852,12.056-13.864,6.376-9.26,12.378-18.808,17.918-28.584C296.8,400.212,295.6,396.543,295.554,393.516Zm63.527-4.074c-6.336,10.949-15.37,14.2-25.749,12.809-9.751-1.312-19.31-4.039-28.744-6.1,10.906,6.381,22.052,13.08,35.713,13.057C351.282,409.195,358.394,402.149,359.081,389.443ZM190.514,539.5c-1.609-11.739-21.278-20.363-45.156-15.616C161.893,526.484,177.015,529.62,190.514,539.5ZM391.648,430.7c2.841,2.967,5.414,6.259,8.578,8.832,7.192,5.845,12.729,3.631,15.168-6.185C406.739,438.1,399.436,435.1,391.648,430.7Z" transform="translate(536 299)"/>
  </g>
</svg>
